<svg width="43" height="19" viewBox="0 0 43 19" fill="none" xmlns="http://www.w3.org/2000/svg">
    <path fill-rule="evenodd" clip-rule="evenodd" d="M33.3466 0.0261828L33.7216 12.7249H36.9481L37.3143 0.0261828H33.3466ZM35.3348 19C36.4281 19 37.3143 18.113 37.3143 17.0188C37.3143 15.9247 36.4281 15.0377 35.3348 15.0377C34.2416 15.0377 33.3553 15.9247 33.3553 17.0188C33.3553 18.113 34.2416 19 35.3348 19ZM39.041 0.0261828L39.4072 12.7249H42.6337L43 0.0261828H39.041ZM41.0205 19C42.1137 19 43 18.113 43 17.0188C43 15.9247 42.1137 15.0377 41.0205 15.0377C39.9272 15.0377 39.041 15.9247 39.041 17.0188C39.041 18.113 39.9272 19 41.0205 19ZM28.4981 9.11162H28.158H22.9955V12.7423H27.4778C26.0738 14.6973 23.4228 15.6922 20.6846 14.5664C19.4638 14.0602 18.4784 13.0914 17.9639 11.8695C16.2896 7.84612 19.1935 3.98852 22.9955 3.98852C23.1699 3.98852 23.3444 3.99724 23.5188 4.0147C23.5536 4.0147 23.5885 4.02343 23.6234 4.02343C23.6583 4.02343 23.6844 4.03215 23.7193 4.03215C23.7542 4.04088 23.7891 4.04088 23.824 4.04961C23.8589 4.05834 23.885 4.05834 23.9199 4.06706C23.9548 4.07579 23.9897 4.07579 24.0245 4.08452C24.0594 4.09325 24.0856 4.09325 24.1117 4.10197C24.1466 4.1107 24.1815 4.11943 24.2164 4.11943C24.2425 4.12816 24.2774 4.13689 24.3036 4.13689C24.3385 4.14561 24.3734 4.15434 24.3995 4.16307C24.4257 4.1718 24.4606 4.18052 24.4867 4.18925C24.5216 4.19798 24.5478 4.20671 24.5826 4.21543C24.6088 4.22416 24.6437 4.23289 24.6698 4.24162C24.7047 4.25034 24.7309 4.25907 24.7658 4.27653C24.7919 4.28526 24.8268 4.29398 24.853 4.30271C24.8879 4.31144 24.914 4.32889 24.9489 4.33762C24.9751 4.34635 25.0099 4.3638 25.0361 4.37253C25.071 4.38126 25.0971 4.39871 25.132 4.40744C25.1582 4.41617 25.1931 4.43362 25.2192 4.44235C25.2454 4.45981 25.2803 4.46853 25.3064 4.48599C25.3326 4.49472 25.3588 4.51217 25.3936 4.5209C25.4198 4.53836 25.4547 4.54708 25.4808 4.56454C25.507 4.58199 25.5332 4.59072 25.5593 4.60818C25.5855 4.62563 25.6204 4.64309 25.6465 4.65181C25.6727 4.66927 25.6988 4.678 25.725 4.69545C25.7512 4.71291 25.786 4.73036 25.8122 4.74782C25.8384 4.76527 25.8645 4.78273 25.8907 4.79146C26.1785 4.96601 26.4401 5.16674 26.693 5.39366L29.4922 2.5921C29.1434 2.26045 28.7684 1.96371 28.376 1.68443C28.3585 1.66697 28.3324 1.65825 28.3062 1.64079C28.2452 1.59715 28.1841 1.55351 28.1144 1.5186C28.0795 1.49242 28.0446 1.47497 28.001 1.44878C27.94 1.40514 27.8702 1.37023 27.8092 1.3266C27.7743 1.30914 27.7394 1.28296 27.6958 1.2655C27.626 1.23059 27.565 1.18695 27.4952 1.15204C27.4604 1.13459 27.4255 1.11713 27.3906 1.09968C27.3208 1.06477 27.2511 1.02113 27.1813 0.98622C27.1464 0.968764 27.1203 0.951309 27.0854 0.942582C27.0069 0.907671 26.9284 0.872761 26.8587 0.83785C26.6581 0.750574 26.475 0.672026 26.2918 0.602205C26.2657 0.593477 26.2308 0.576022 26.2046 0.567294C26.1436 0.541112 26.0738 0.523656 26.0041 0.497474C25.9517 0.480018 25.8994 0.462563 25.8471 0.445108C25.786 0.427653 25.725 0.410198 25.664 0.392742C25.6029 0.375287 25.5506 0.357832 25.4896 0.340377C25.4285 0.322921 25.3675 0.305466 25.3064 0.296739C25.2454 0.279283 25.1843 0.261828 25.1233 0.253101C25.0623 0.235645 25.0012 0.226918 24.9489 0.21819C24.8879 0.200735 24.8181 0.192007 24.757 0.18328C24.696 0.174552 24.6437 0.165825 24.5826 0.148369C24.5129 0.139642 24.4518 0.122186 24.3821 0.113459C24.321 0.104731 24.2687 0.0960037 24.2077 0.0872761C24.1379 0.0785485 24.0681 0.0698209 24.0071 0.0610932C23.9461 0.0523656 23.8937 0.0523656 23.8327 0.043638C23.7629 0.0349104 23.6932 0.0349104 23.6234 0.0261828C23.5885 0.0261828 23.5536 0.0174552 23.5188 0.0174552C23.3182 0.00872761 23.1525 0 22.9868 0C16.621 0 11.7114 6.28388 14.1357 13.0041C15.0513 15.5526 17.1006 17.5338 19.6556 18.4153C25.1146 20.283 30.2509 17.3243 31.9077 12.7074C32.2565 11.7386 32.1868 11.3197 32.2042 10.2375V9.59164V9.11162L28.4981 9.11162ZM12.1474 9.84474H11.6504H10.9789H9.91503H9.41797H8.232H6.81931H6.32225V10.3422V12.2274V12.7249H6.81931H8.232H8.85987H9.40925C9.40925 12.8121 9.40053 12.8907 9.39181 12.978C9.38309 13.0827 9.36565 13.1787 9.34821 13.2747C9.34821 13.2921 9.33949 13.3183 9.33949 13.3358C9.33949 13.3445 9.33076 13.362 9.33076 13.3707C9.32204 13.4056 9.31332 13.4405 9.3046 13.4754C9.3046 13.4929 9.29588 13.5103 9.28716 13.5191C9.27844 13.554 9.26972 13.5802 9.261 13.6151C9.25228 13.6325 9.25228 13.65 9.24356 13.6587C9.23484 13.6849 9.22612 13.7198 9.20868 13.746C9.19996 13.7634 9.19996 13.7722 9.19124 13.7896C9.18252 13.8158 9.16508 13.8507 9.15636 13.8769C9.14764 13.8944 9.14764 13.9031 9.13892 13.9205C9.12148 13.9554 9.10404 13.9904 9.09531 14.0165C9.08659 14.0253 9.08659 14.034 9.08659 14.0427C9.02555 14.1736 8.94707 14.2958 8.86859 14.418C8.86859 14.418 8.86859 14.418 8.86859 14.4267C8.84243 14.4616 8.81626 14.5053 8.7901 14.5402L8.78138 14.5489C8.75522 14.5838 8.72906 14.6187 8.69418 14.6537L8.68546 14.6624C8.6593 14.6973 8.62442 14.7322 8.58954 14.7671C8.02271 15.378 7.21172 15.7621 6.32225 15.7621C4.62178 15.7621 3.22653 14.3656 3.22653 12.6638V8.82361C3.22653 7.13045 4.62178 5.73404 6.32225 5.73404C6.46177 5.73404 6.61002 5.74277 6.74954 5.76022C6.76698 5.76022 6.78442 5.76895 6.80187 5.76895C6.83675 5.77768 6.86291 5.77768 6.89779 5.7864C6.90651 5.7864 6.91523 5.7864 6.92395 5.79513C7.46461 5.89986 7.95295 6.15296 8.36281 6.50207C8.41513 6.55443 8.46745 6.59807 8.51977 6.65044C8.53721 6.66789 8.55465 6.68535 8.57209 6.7028C8.72034 6.8599 8.85987 7.03445 8.97323 7.21773L9.37437 6.81626L10.9527 5.23656L11.2667 4.92237C11.1795 4.79146 11.0748 4.66927 10.9702 4.55581C10.9353 4.5209 10.9091 4.48599 10.8743 4.45108C10.8568 4.43362 10.8394 4.41617 10.8219 4.39871C10.7696 4.34635 10.7173 4.29398 10.665 4.24162C10.6388 4.21543 10.6214 4.19798 10.5952 4.18052C10.5516 4.14561 10.5167 4.1107 10.4731 4.06706C10.4382 4.03215 10.4034 4.00597 10.3685 3.97979C10.3249 3.94488 10.2813 3.90997 10.2464 3.87506C10.2115 3.84887 10.1679 3.81396 10.133 3.78778C10.0894 3.75287 10.0458 3.71796 10.0022 3.69178C9.96735 3.66559 9.92375 3.63941 9.88887 3.61323L9.88015 3.6045C9.81038 3.55214 9.74062 3.5085 9.66214 3.46486L9.65342 3.45613C9.60982 3.42995 9.55749 3.39504 9.51389 3.36886C9.47029 3.34267 9.42669 3.32522 9.38309 3.29904C9.33948 3.27285 9.28716 3.24667 9.24356 3.22049C9.19996 3.1943 9.15636 3.17685 9.11276 3.15067C9.06043 3.12448 9.01683 3.10703 8.96451 3.08085C8.92091 3.06339 8.87731 3.03721 8.8337 3.01975C8.78138 3.0023 8.73778 2.97611 8.68546 2.95866C8.64186 2.9412 8.59826 2.92375 8.54593 2.90629C8.49361 2.88884 8.44129 2.87138 8.38897 2.85393C8.34537 2.83647 8.29304 2.81902 8.24944 2.81029C8.19712 2.79283 8.1448 2.77538 8.08376 2.75792C8.04015 2.74047 7.98783 2.73174 7.94423 2.72301C7.89191 2.70556 7.83087 2.69683 7.77854 2.67938C7.73494 2.67065 7.68262 2.66192 7.63902 2.64446C7.57798 2.63574 7.51693 2.61828 7.46461 2.60955C7.42101 2.60083 7.37741 2.5921 7.33381 2.58337C7.27276 2.57464 7.21172 2.56592 7.14196 2.55719C7.09836 2.54846 7.05476 2.54846 7.01115 2.53973C6.94139 2.53101 6.87163 2.53101 6.79315 2.52228C6.75826 2.52228 6.72338 2.51355 6.6885 2.51355C6.54026 2.51355 6.43561 2.50482 6.32225 2.50482C2.84283 2.50482 0 5.35875 0 8.83234V12.6725C0 16.1548 2.84283 19 6.32225 19H6.81931C10.0284 19 12.6445 16.373 12.6445 13.17V12.6725V10.8833V10.5168V10.3422V9.84474H12.1474Z" fill="#b5b5b5"/>
</svg>
