<svg width="523" height="523" viewBox="0 0 523 523" fill="none" xmlns="http://www.w3.org/2000/svg">
    <mask id="mask0" mask-type="alpha" maskUnits="userSpaceOnUse" x="10" y="339" width="503" height="120">
        <rect x="10" y="339" width="503" height="120" fill="#C4C4C4"/>
    </mask>
    <g mask="url(#mask0)">
        <path d="M38 449.769C39.9632 386.923 60.5508 301.92 98.0584 232.573C94.9889 221.345 93.3553 209.614 93.3553 197.539C93.3553 126.433 149.747 67.0586 224.951 52.776V175.601C224.951 192.026 238.314 205.39 254.734 205.39H265.058C281.492 205.39 294.847 192.026 294.847 175.601V52.776C370.051 67.0586 426.442 126.433 426.442 197.539C426.442 209.615 424.809 221.345 421.739 232.573C459.247 301.92 479.834 386.923 481.789 449.769C473.961 428.05 460.974 393.543 445.538 358.468C410.298 278.396 380.698 235.305 355.023 226.748C307.803 211.012 273.112 231.993 259.899 242.248C246.676 231.993 211.995 211.005 164.776 226.748C139.099 235.306 109.491 278.396 74.2607 358.468C58.8232 393.543 45.836 428.05 38 449.769ZM229.921 440.99V405.61L204.38 440.99H229.921ZM254.733 188.934H265.057C272.429 188.934 278.405 182.967 278.405 175.602V56.3327C278.405 48.9753 272.429 43 265.057 43H254.733C247.367 43 241.393 48.9753 241.393 56.3327V175.601C241.393 182.966 247.368 188.934 254.733 188.934ZM289.946 440.99H315.418L289.946 405.719V440.99ZM430.438 364.986C445.24 398.606 457.755 431.709 465.559 453.255C442.02 444.603 418.245 437.394 394.375 431.639L422.014 367.153L351.458 478.004H168.402L97.8619 367.153L124.511 429.307C100.453 435.181 77.0862 442.773 54.6463 452.108C62.4824 430.54 74.8176 398.01 89.3517 364.986C132.333 267.342 158.313 246.235 169.973 242.356C219.745 225.758 252.716 257.534 254.082 258.877L259.877 264.624L265.686 258.892C267.075 257.534 300.046 225.758 349.825 242.356C361.477 246.235 387.466 267.342 430.438 364.986ZM196.34 348.34C214.847 348.34 241.394 295.246 241.394 295.246C241.394 295.246 222.431 256.921 167.367 276.747C130.353 290.065 177.84 348.34 196.34 348.34ZM347.571 457.448L328.752 431.364L274.761 356.569C277.039 353.498 278.405 349.706 278.405 345.584C278.405 335.369 270.113 327.078 259.898 327.078C249.675 327.078 241.392 335.369 241.392 345.584C241.392 349.706 242.758 353.498 245.034 356.569L191.045 431.364L172.217 457.448H204.379H315.418H347.571ZM352.423 276.747C297.36 256.921 278.405 295.246 278.405 295.246C278.405 295.246 304.943 348.34 323.459 348.34C341.957 348.34 389.438 290.065 352.423 276.747ZM241.926 440.99H253.932V372.35L241.926 388.979V440.99ZM265.937 440.99H277.942V389.09L265.937 372.46V440.99Z" fill="url(#paint0_linear)"/>
    </g>
    <circle cx="261.5" cy="261.5" r="261.5" fill="url(#paint1_linear)"/>
    <mask id="mask1" mask-type="alpha" maskUnits="userSpaceOnUse" x="27" y="26" width="470" height="470">
        <circle cx="262" cy="261" r="235" fill="#C4C4C4"/>
    </mask>
    <g mask="url(#mask1)">
        <circle cx="262" cy="261" r="235" fill="url(#paint2_linear)"/>
        <circle cx="262" cy="261" r="235" fill="url(#paint3_linear)"/>
        <path d="M38.6055 450.766C40.5687 387.921 61.1563 302.918 98.6639 233.571C95.5943 222.343 93.9608 210.612 93.9608 198.537C93.9608 127.431 150.353 68.0566 225.557 53.774V176.599C225.557 193.024 238.919 206.388 255.339 206.388H265.664C282.098 206.388 295.453 193.024 295.453 176.599V53.774C370.657 68.0566 427.048 127.431 427.048 198.537C427.048 210.613 425.414 222.343 422.345 233.571C459.852 302.918 480.44 387.921 482.395 450.766C474.567 429.048 461.58 394.54 446.143 359.466C410.903 279.394 381.304 236.303 355.628 227.746C308.408 212.01 273.718 232.991 260.504 243.245C247.281 232.991 212.6 212.003 165.381 227.746C139.705 236.304 110.097 279.394 74.8662 359.466C59.4287 394.54 46.4415 429.048 38.6055 450.766ZM230.526 441.988V406.608L204.985 441.988H230.526ZM255.338 189.932H265.663C273.035 189.932 279.01 183.965 279.01 176.6V57.3306C279.01 49.9732 273.035 43.9979 265.663 43.9979H255.338C247.972 43.9979 241.998 49.9732 241.998 57.3306V176.599C241.998 183.964 247.974 189.932 255.338 189.932ZM290.552 441.988H316.023L290.552 406.717V441.988ZM431.044 365.984C445.845 399.604 458.36 432.707 466.165 454.253C442.626 445.601 418.85 438.392 394.981 432.637L422.619 368.151L352.063 479.002L255.339 510L169.008 479.002L98.4673 368.151L125.117 430.305C101.058 436.178 77.6917 443.77 55.2518 453.106C63.0878 431.538 75.4231 399.008 89.9571 365.984C132.938 268.34 158.919 247.233 170.579 243.354C220.351 226.756 253.321 258.532 254.687 259.875L260.482 265.622L266.291 259.89C267.681 258.532 300.651 226.756 350.431 243.354C362.082 247.233 388.071 268.34 431.044 365.984ZM204.984 336.5C223.491 336.5 241.999 296.244 241.999 296.244C241.999 296.244 223.037 257.919 167.972 277.745C130.958 291.063 186.484 336.5 204.984 336.5ZM348.177 458.446L329.357 432.362L275.367 357.567C277.644 354.496 279.01 350.704 279.01 346.582C279.01 336.367 270.719 328.076 260.503 328.076C250.28 328.076 241.997 336.367 241.997 346.582C241.997 350.704 243.363 354.496 245.639 357.567L191.65 432.362L172.822 458.446H204.984H316.023H348.177ZM353.029 277.745C297.965 257.919 279.01 296.244 279.01 296.244C279.01 296.244 297.508 336.5 316.023 336.5C334.522 336.5 390.043 291.063 353.029 277.745ZM242.532 441.988H254.537V373.347L242.532 389.977V441.988ZM266.543 441.988H278.547V390.088L266.543 373.458V441.988Z" fill="url(#paint4_linear)"/>
    </g>
    <defs>
        <linearGradient id="paint0_linear" x1="9.40026" y1="16.8998" x2="504.201" y2="523.665" gradientUnits="userSpaceOnUse">
            <stop stop-color="#00B68A"/>
            <stop offset="1" stop-color="#0D7A67"/>
        </linearGradient>
        <linearGradient id="paint1_linear" x1="-33.7044" y1="-31.38" x2="561.353" y2="566.002" gradientUnits="userSpaceOnUse">
            <stop stop-color="#00B68A"/>
            <stop offset="1" stop-color="#0D7A67"/>
        </linearGradient>
        <linearGradient id="paint2_linear" x1="-3.28889" y1="-2.2" x2="531.467" y2="534.644" gradientUnits="userSpaceOnUse">
            <stop stop-color="#00B68A"/>
            <stop offset="1" stop-color="#0D7A67"/>
        </linearGradient>
        <linearGradient id="paint3_linear" x1="-3.28889" y1="-2.2" x2="531.467" y2="534.644" gradientUnits="userSpaceOnUse">
            <stop stop-opacity="0.33"/>
            <stop offset="0.482251" stop-opacity="0.17"/>
            <stop offset="1" stop-opacity="0.63"/>
        </linearGradient>
        <linearGradient id="paint4_linear" x1="260.5" y1="43.9979" x2="260.5" y2="479.002" gradientUnits="userSpaceOnUse">
            <stop stop-color="white"/>
            <stop offset="1" stop-color="white" stop-opacity="0.84"/>
        </linearGradient>
    </defs>
</svg>
