<svg width="450" height="450" viewBox="0 0 450 450" fill="none" xmlns="http://www.w3.org/2000/svg">
    <g clip-path="url(#clip0)">
        <mask id="mask0" mask-type="alpha" maskUnits="userSpaceOnUse" x="-25" y="303" width="503" height="120">
            <rect x="-25" y="303" width="503" height="120" fill="#C4C4C4"/>
        </mask>
        <g mask="url(#mask0)">
            <path d="M3 413.769C4.96324 350.923 25.5508 265.92 63.0584 196.573C59.9889 185.345 58.3553 173.614 58.3553 161.539C58.3553 90.4334 114.747 31.0586 189.951 16.776V139.601C189.951 156.026 203.314 169.39 219.734 169.39H230.058C246.492 169.39 259.847 156.026 259.847 139.601V16.776C335.051 31.0586 391.442 90.4334 391.442 161.539C391.442 173.615 389.809 185.345 386.739 196.573C424.247 265.92 444.834 350.923 446.789 413.769C438.961 392.05 425.974 357.543 410.538 322.468C375.298 242.396 345.698 199.305 320.023 190.748C272.803 175.012 238.112 195.993 224.899 206.248C211.676 195.993 176.995 175.005 129.776 190.748C104.099 199.306 74.4912 242.396 39.2607 322.468C23.8232 357.543 10.836 392.05 3 413.769ZM194.921 404.99V369.61L169.38 404.99H194.921ZM219.733 152.934H230.057C237.429 152.934 243.405 146.967 243.405 139.602V20.3327C243.405 12.9753 237.429 7 230.057 7H219.733C212.367 7 206.393 12.9753 206.393 20.3327V139.601C206.393 146.966 212.368 152.934 219.733 152.934ZM254.946 404.99H280.418L254.946 369.719V404.99ZM395.438 328.986C410.24 362.606 422.755 395.709 430.559 417.255C407.02 408.603 383.245 401.394 359.375 395.639L387.014 331.153L316.458 442.004H133.402L62.8619 331.153L89.5114 393.307C65.4527 399.181 42.0862 406.773 19.6463 416.108C27.4824 394.54 39.8176 362.01 54.3517 328.986C97.3326 231.342 123.313 210.235 134.973 206.356C184.745 189.758 217.716 221.534 219.082 222.877L224.877 228.624L230.686 222.892C232.075 221.534 265.046 189.758 314.825 206.356C326.477 210.235 352.466 231.342 395.438 328.986ZM161.34 312.34C179.847 312.34 206.394 259.246 206.394 259.246C206.394 259.246 187.431 220.921 132.367 240.747C95.3525 254.065 142.84 312.34 161.34 312.34ZM312.571 421.448L293.752 395.364L239.761 320.569C242.039 317.498 243.405 313.706 243.405 309.584C243.405 299.369 235.113 291.078 224.898 291.078C214.675 291.078 206.392 299.369 206.392 309.584C206.392 313.706 207.758 317.498 210.034 320.569L156.045 395.364L137.217 421.448H169.379H280.418H312.571ZM317.423 240.747C262.36 220.921 243.405 259.246 243.405 259.246C243.405 259.246 269.943 312.34 288.459 312.34C306.957 312.34 354.438 254.065 317.423 240.747ZM206.926 404.99H218.932V336.35L206.926 352.979V404.99ZM230.937 404.99H242.942V353.09L230.937 336.46V404.99Z" fill="url(#paint0_linear)"/>
        </g>
        <mask id="mask1" mask-type="alpha" maskUnits="userSpaceOnUse" x="0" y="0" width="450" height="450">
            <circle cx="225" cy="225" r="225" fill="#C4C4C4"/>
        </mask>
        <g mask="url(#mask1)">
            <circle cx="225" cy="225" r="225" fill="url(#paint1_linear)"/>
            <circle cx="225" cy="225" r="225" fill="url(#paint2_linear)"/>
            <path d="M3.60547 414.766C5.56871 351.921 26.1563 266.918 63.6639 197.571C60.5943 186.343 58.9608 174.612 58.9608 162.537C58.9608 91.4313 115.353 32.0566 190.557 17.774V140.599C190.557 157.024 203.919 170.388 220.339 170.388H230.664C247.098 170.388 260.453 157.024 260.453 140.599V17.774C335.657 32.0566 392.048 91.4313 392.048 162.537C392.048 174.613 390.414 186.343 387.345 197.571C424.852 266.918 445.44 351.921 447.395 414.766C439.567 393.048 426.58 358.54 411.143 323.466C375.903 243.394 346.304 200.303 320.628 191.746C273.408 176.01 238.718 196.991 225.504 207.245C212.281 196.991 177.6 176.003 130.381 191.746C104.705 200.304 75.0967 243.394 39.8662 323.466C24.4287 358.54 11.4415 393.048 3.60547 414.766ZM195.526 405.988V370.608L169.985 405.988H195.526ZM220.338 153.932H230.663C238.035 153.932 244.01 147.965 244.01 140.6V21.3306C244.01 13.9732 238.035 7.99792 230.663 7.99792H220.338C212.972 7.99792 206.998 13.9732 206.998 21.3306V140.599C206.998 147.964 212.974 153.932 220.338 153.932ZM255.552 405.988H281.023L255.552 370.717V405.988ZM396.044 329.984C410.845 363.604 423.36 396.707 431.165 418.253C407.626 409.601 383.85 402.392 359.981 396.637L387.619 332.151L317.063 443.002L225.504 464.5L134.008 443.002L63.4673 332.151L90.1169 394.305C66.0582 400.178 42.6917 407.77 20.2518 417.106C28.0878 395.538 40.4231 363.008 54.9571 329.984C97.9381 232.34 123.919 211.233 135.579 207.354C185.351 190.756 218.321 222.532 219.687 223.875L225.482 229.622L231.291 223.89C232.681 222.532 265.651 190.756 315.431 207.354C327.082 211.233 353.071 232.34 396.044 329.984ZM169.984 300.5C188.491 300.5 206.999 260.244 206.999 260.244C206.999 260.244 188.037 221.919 132.972 241.745C95.958 255.063 151.484 300.5 169.984 300.5ZM313.177 422.446L294.357 396.362L240.367 321.567C242.644 318.496 244.01 314.704 244.01 310.582C244.01 300.367 235.719 292.076 225.503 292.076C215.28 292.076 206.997 300.367 206.997 310.582C206.997 314.704 208.363 318.496 210.639 321.567L156.65 396.362L137.822 422.446H169.984H281.023H313.177ZM318.029 241.745C262.965 221.919 244.01 260.244 244.01 260.244C244.01 260.244 262.508 300.5 281.023 300.5C299.522 300.5 355.043 255.063 318.029 241.745ZM207.532 405.988H219.537V337.347L207.532 353.977V405.988ZM231.543 405.988H243.547V354.088L231.543 337.458V405.988Z" fill="url(#paint3_linear)"/>
        </g>
    </g>
    <defs>
        <linearGradient id="paint0_linear" x1="-25.5997" y1="-19.1002" x2="469.201" y2="487.665" gradientUnits="userSpaceOnUse">
            <stop stop-color="#240B36"/>
            <stop offset="1" stop-color="#C31432"/>
        </linearGradient>
        <linearGradient id="paint1_linear" x1="-29" y1="-27" x2="483" y2="487" gradientUnits="userSpaceOnUse">
            <stop stop-color="#240B36"/>
            <stop offset="1" stop-color="#C31432"/>
        </linearGradient>
        <linearGradient id="paint2_linear" x1="-29" y1="-27" x2="483" y2="487" gradientUnits="userSpaceOnUse">
            <stop stop-opacity="0.33"/>
            <stop offset="0.482251" stop-opacity="0.17"/>
            <stop offset="1" stop-opacity="0.63"/>
        </linearGradient>
        <linearGradient id="paint3_linear" x1="225.5" y1="7.99792" x2="225.5" y2="443.002" gradientUnits="userSpaceOnUse">
            <stop stop-color="white"/>
            <stop offset="1" stop-color="white" stop-opacity="0.84"/>
        </linearGradient>
        <clipPath id="clip0">
            <rect width="450" height="450" fill="white"/>
        </clipPath>
    </defs>
</svg>
