<svg width="41" height="32" viewBox="0 0 41 32" fill="none" xmlns="http://www.w3.org/2000/svg">
    <path fill-rule="evenodd" clip-rule="evenodd" d="M1.63239 0.156307C2.92715 -0.323234 4.36551 0.337632 4.84505 1.63239L12.606 22.5868L17.6838 10.0614C18.2026 8.78186 19.6604 8.16509 20.9399 8.68383C22.2195 9.20257 22.8363 10.6604 22.3175 11.9399L14.8175 30.4399C14.4298 31.3963 13.4944 32.0161 12.4626 32.0004C11.4308 31.9847 10.5147 31.3366 10.1563 30.369L0.156307 3.36896C-0.323234 2.0742 0.337632 0.635848 1.63239 0.156307ZM38.369 0.156307C39.6637 0.635848 40.3246 2.0742 39.8451 3.36896L29.8451 30.369C29.491 31.325 28.5919 31.9702 27.5728 31.9996C26.5537 32.029 25.6189 31.4367 25.2103 30.5027L21.7103 22.5027C21.1569 21.2378 21.7337 19.7637 22.9986 19.2103C24.2636 18.6569 25.7377 19.2337 26.2911 20.4986L27.308 22.8229L35.1563 1.63239C35.6358 0.337632 37.0742 -0.323234 38.369 0.156307Z" fill="#b5b5b5"/>
</svg>
